<svg width="80" height="22" viewBox="0 0 80 22" fill="none" xmlns="http://www.w3.org/2000/svg">
<rect y="1" width="80" height="20" rx="5" fill="#0ACF83"/>
<path d="M16.965 5.796H18.642L22.646 15H20.358L19.565 13.05H15.99L15.223 15H12.987L16.965 5.796ZM17.745 8.474L16.627 11.334H18.876L17.745 8.474ZM23.5067 8.682H25.3007V9.514H25.3267C25.4047 9.40133 25.5044 9.28867 25.6257 9.176C25.7557 9.05467 25.9031 8.94633 26.0677 8.851C26.2411 8.75567 26.4274 8.67767 26.6267 8.617C26.8261 8.55633 27.0384 8.526 27.2637 8.526C27.7317 8.526 28.1564 8.60833 28.5377 8.773C28.9191 8.929 29.2441 9.15433 29.5127 9.449C29.7901 9.735 30.0024 10.0773 30.1497 10.476C30.2971 10.8747 30.3707 11.3123 30.3707 11.789C30.3707 12.231 30.3014 12.6557 30.1627 13.063C30.0327 13.4617 29.8421 13.817 29.5907 14.129C29.3481 14.441 29.0491 14.6923 28.6937 14.883C28.3384 15.065 27.9354 15.156 27.4847 15.156C27.0774 15.156 26.6961 15.0953 26.3407 14.974C25.9941 14.844 25.7081 14.6273 25.4827 14.324H25.4567V17.964H23.5067V8.682ZM25.3007 11.841C25.3007 12.3177 25.4351 12.7033 25.7037 12.998C25.9811 13.2927 26.3667 13.44 26.8607 13.44C27.3547 13.44 27.7361 13.2927 28.0047 12.998C28.2821 12.7033 28.4207 12.3177 28.4207 11.841C28.4207 11.3643 28.2821 10.9787 28.0047 10.684C27.7361 10.3893 27.3547 10.242 26.8607 10.242C26.3667 10.242 25.9811 10.3893 25.7037 10.684C25.4351 10.9787 25.3007 11.3643 25.3007 11.841ZM31.6952 8.682H33.4892V9.514H33.5152C33.5932 9.40133 33.6929 9.28867 33.8142 9.176C33.9442 9.05467 34.0916 8.94633 34.2562 8.851C34.4296 8.75567 34.6159 8.67767 34.8152 8.617C35.0146 8.55633 35.2269 8.526 35.4522 8.526C35.9202 8.526 36.3449 8.60833 36.7262 8.773C37.1076 8.929 37.4326 9.15433 37.7012 9.449C37.9786 9.735 38.1909 10.0773 38.3382 10.476C38.4856 10.8747 38.5592 11.3123 38.5592 11.789C38.5592 12.231 38.4899 12.6557 38.3512 13.063C38.2212 13.4617 38.0306 13.817 37.7792 14.129C37.5366 14.441 37.2376 14.6923 36.8822 14.883C36.5269 15.065 36.1239 15.156 35.6732 15.156C35.2659 15.156 34.8846 15.0953 34.5292 14.974C34.1826 14.844 33.8966 14.6273 33.6712 14.324H33.6452V17.964H31.6952V8.682ZM33.4892 11.841C33.4892 12.3177 33.6236 12.7033 33.8922 12.998C34.1696 13.2927 34.5552 13.44 35.0492 13.44C35.5432 13.44 35.9246 13.2927 36.1932 12.998C36.4706 12.7033 36.6092 12.3177 36.6092 11.841C36.6092 11.3643 36.4706 10.9787 36.1932 10.684C35.9246 10.3893 35.5432 10.242 35.0492 10.242C34.5552 10.242 34.1696 10.3893 33.8922 10.684C33.6236 10.9787 33.4892 11.3643 33.4892 11.841ZM39.7017 8.682H41.6517V9.696H41.6777C41.8857 9.306 42.1327 9.01567 42.4187 8.825C42.7047 8.62567 43.0644 8.526 43.4977 8.526C43.6104 8.526 43.723 8.53033 43.8357 8.539C43.9484 8.54767 44.0524 8.565 44.1477 8.591V10.372C44.009 10.3287 43.8704 10.2983 43.7317 10.281C43.6017 10.255 43.463 10.242 43.3157 10.242C42.943 10.242 42.6484 10.294 42.4317 10.398C42.215 10.502 42.046 10.6493 41.9247 10.84C41.812 11.022 41.7384 11.243 41.7037 11.503C41.669 11.763 41.6517 12.049 41.6517 12.361V15H39.7017V8.682ZM44.5331 11.841C44.5331 11.3383 44.6241 10.8833 44.8061 10.476C44.9881 10.0687 45.2351 9.722 45.5471 9.436C45.8678 9.14133 46.2405 8.916 46.6651 8.76C47.0985 8.604 47.5578 8.526 48.0431 8.526C48.5285 8.526 48.9835 8.604 49.4081 8.76C49.8415 8.916 50.2141 9.14133 50.5261 9.436C50.8468 9.722 51.0981 10.0687 51.2801 10.476C51.4621 10.8833 51.5531 11.3383 51.5531 11.841C51.5531 12.3437 51.4621 12.7987 51.2801 13.206C51.0981 13.6133 50.8468 13.9643 50.5261 14.259C50.2141 14.545 49.8415 14.766 49.4081 14.922C48.9835 15.078 48.5285 15.156 48.0431 15.156C47.5578 15.156 47.0985 15.078 46.6651 14.922C46.2405 14.766 45.8678 14.545 45.5471 14.259C45.2351 13.9643 44.9881 13.6133 44.8061 13.206C44.6241 12.7987 44.5331 12.3437 44.5331 11.841ZM46.4831 11.841C46.4831 12.3177 46.6175 12.7033 46.8861 12.998C47.1635 13.2927 47.5491 13.44 48.0431 13.44C48.5371 13.44 48.9185 13.2927 49.1871 12.998C49.4645 12.7033 49.6031 12.3177 49.6031 11.841C49.6031 11.3643 49.4645 10.9787 49.1871 10.684C48.9185 10.3893 48.5371 10.242 48.0431 10.242C47.5491 10.242 47.1635 10.3893 46.8861 10.684C46.6175 10.9787 46.4831 11.3643 46.4831 11.841ZM52.0387 8.682H54.1447L55.7437 12.972H55.7697L57.2517 8.682H59.2147L56.7187 15H54.6517L52.0387 8.682ZM65.9053 13.908C65.5933 14.3067 65.199 14.6143 64.7223 14.831C64.2457 15.0477 63.7517 15.156 63.2403 15.156C62.755 15.156 62.2957 15.078 61.8623 14.922C61.4377 14.766 61.065 14.545 60.7443 14.259C60.4323 13.9643 60.1853 13.6133 60.0033 13.206C59.8213 12.7987 59.7303 12.3437 59.7303 11.841C59.7303 11.3383 59.8213 10.8833 60.0033 10.476C60.1853 10.0687 60.4323 9.722 60.7443 9.436C61.065 9.14133 61.4377 8.916 61.8623 8.76C62.2957 8.604 62.755 8.526 63.2403 8.526C63.691 8.526 64.0983 8.604 64.4623 8.76C64.835 8.916 65.147 9.14133 65.3983 9.436C65.6583 9.722 65.8577 10.0687 65.9963 10.476C66.135 10.8833 66.2043 11.3383 66.2043 11.841V12.452H61.6803C61.7583 12.8247 61.9273 13.1237 62.1873 13.349C62.4473 13.5657 62.768 13.674 63.1493 13.674C63.47 13.674 63.7387 13.6047 63.9553 13.466C64.1807 13.3187 64.3757 13.1323 64.5403 12.907L65.9053 13.908ZM64.2543 11.126C64.263 10.7967 64.1547 10.515 63.9293 10.281C63.704 10.047 63.4137 9.93 63.0583 9.93C62.8417 9.93 62.651 9.96467 62.4863 10.034C62.3217 10.1033 62.1787 10.1943 62.0573 10.307C61.9447 10.411 61.8537 10.5367 61.7843 10.684C61.7237 10.8227 61.689 10.97 61.6803 11.126H64.2543Z" fill="white"/>
</svg>
