<svg width="80" height="22" viewBox="0 0 80 22" fill="none" xmlns="http://www.w3.org/2000/svg">
<rect width="80" height="20" rx="5" fill="#FF0742"/>
<path d="M25.955 8.188C25.7557 7.94533 25.5087 7.759 25.214 7.629C24.928 7.499 24.5943 7.434 24.213 7.434C23.8317 7.434 23.4763 7.50767 23.147 7.655C22.8263 7.80233 22.5447 8.01033 22.302 8.279C22.068 8.539 21.8817 8.851 21.743 9.215C21.613 9.579 21.548 9.97333 21.548 10.398C21.548 10.8313 21.613 11.23 21.743 11.594C21.8817 11.9493 22.068 12.2613 22.302 12.53C22.536 12.79 22.809 12.9937 23.121 13.141C23.4417 13.2883 23.784 13.362 24.148 13.362C24.564 13.362 24.9323 13.2753 25.253 13.102C25.5737 12.9287 25.838 12.686 26.046 12.374L27.736 13.635C27.346 14.181 26.852 14.584 26.254 14.844C25.656 15.104 25.0407 15.234 24.408 15.234C23.6887 15.234 23.0257 15.1213 22.419 14.896C21.8123 14.6707 21.288 14.35 20.846 13.934C20.404 13.5093 20.0573 12.998 19.806 12.4C19.5633 11.802 19.442 11.1347 19.442 10.398C19.442 9.66133 19.5633 8.994 19.806 8.396C20.0573 7.798 20.404 7.291 20.846 6.875C21.288 6.45033 21.8123 6.12533 22.419 5.9C23.0257 5.67467 23.6887 5.562 24.408 5.562C24.668 5.562 24.9367 5.588 25.214 5.64C25.5 5.68333 25.7773 5.757 26.046 5.861C26.3233 5.965 26.5877 6.10367 26.839 6.277C27.0903 6.45033 27.3157 6.66267 27.515 6.914L25.955 8.188ZM32.5534 14.207H32.5274C32.3107 14.545 32.0204 14.7877 31.6564 14.935C31.3011 15.0823 30.9241 15.156 30.5254 15.156C30.2307 15.156 29.9447 15.1127 29.6674 15.026C29.3987 14.948 29.1604 14.8267 28.9524 14.662C28.7444 14.4973 28.5797 14.2937 28.4584 14.051C28.3371 13.8083 28.2764 13.5267 28.2764 13.206C28.2764 12.842 28.3414 12.5343 28.4714 12.283C28.6101 12.0317 28.7921 11.8237 29.0174 11.659C29.2514 11.4943 29.5157 11.3687 29.8104 11.282C30.1051 11.1867 30.4084 11.1173 30.7204 11.074C31.0411 11.0307 31.3574 11.0047 31.6694 10.996C31.9901 10.9873 32.2847 10.983 32.5534 10.983C32.5534 10.6363 32.4277 10.3633 32.1764 10.164C31.9337 9.956 31.6434 9.852 31.3054 9.852C30.9847 9.852 30.6901 9.92133 30.4214 10.06C30.1614 10.19 29.9274 10.372 29.7194 10.606L28.6794 9.54C29.0434 9.202 29.4681 8.95067 29.9534 8.786C30.4387 8.61267 30.9414 8.526 31.4614 8.526C32.0334 8.526 32.5014 8.59967 32.8654 8.747C33.2381 8.88567 33.5327 9.09367 33.7494 9.371C33.9747 9.64833 34.1307 9.99067 34.2174 10.398C34.3041 10.7967 34.3474 11.2603 34.3474 11.789V15H32.5534V14.207ZM32.0724 12.231C31.9251 12.231 31.7387 12.2397 31.5134 12.257C31.2967 12.2657 31.0844 12.3003 30.8764 12.361C30.6771 12.4217 30.5037 12.5127 30.3564 12.634C30.2177 12.7553 30.1484 12.9243 30.1484 13.141C30.1484 13.375 30.2481 13.5483 30.4474 13.661C30.6467 13.7737 30.8547 13.83 31.0714 13.83C31.2621 13.83 31.4441 13.804 31.6174 13.752C31.7994 13.7 31.9597 13.6263 32.0984 13.531C32.2371 13.4357 32.3454 13.3143 32.4234 13.167C32.5101 13.0197 32.5534 12.8463 32.5534 12.647V12.231H32.0724ZM35.5708 8.682H37.4428V9.54H37.4688C37.5295 9.41867 37.6162 9.29733 37.7288 9.176C37.8415 9.05467 37.9758 8.94633 38.1318 8.851C38.2878 8.75567 38.4655 8.67767 38.6648 8.617C38.8642 8.55633 39.0808 8.526 39.3148 8.526C39.8088 8.526 40.2075 8.604 40.5108 8.76C40.8142 8.90733 41.0482 9.11533 41.2128 9.384C41.3862 9.65267 41.5032 9.969 41.5638 10.333C41.6245 10.697 41.6548 11.0913 41.6548 11.516V15H39.7048V11.906C39.7048 11.724 39.6962 11.5377 39.6788 11.347C39.6702 11.1477 39.6312 10.9657 39.5618 10.801C39.5012 10.6363 39.4015 10.502 39.2628 10.398C39.1328 10.294 38.9422 10.242 38.6908 10.242C38.4395 10.242 38.2358 10.2897 38.0798 10.385C37.9238 10.4717 37.8025 10.593 37.7158 10.749C37.6378 10.8963 37.5858 11.0653 37.5598 11.256C37.5338 11.4467 37.5208 11.646 37.5208 11.854V15H35.5708V8.682ZM47.3127 10.723C47.2173 10.5843 47.083 10.4717 46.9097 10.385C46.7363 10.2897 46.55 10.242 46.3507 10.242C45.8567 10.242 45.471 10.3893 45.1937 10.684C44.925 10.9787 44.7907 11.3643 44.7907 11.841C44.7907 12.3177 44.925 12.7033 45.1937 12.998C45.471 13.2927 45.8567 13.44 46.3507 13.44C46.5673 13.44 46.7537 13.3923 46.9097 13.297C47.0657 13.2017 47.2 13.089 47.3127 12.959L48.5997 14.311C48.2963 14.623 47.9367 14.844 47.5207 14.974C47.1133 15.0953 46.7233 15.156 46.3507 15.156C45.8653 15.156 45.406 15.078 44.9727 14.922C44.548 14.766 44.1753 14.545 43.8547 14.259C43.5427 13.9643 43.2957 13.6133 43.1137 13.206C42.9317 12.7987 42.8407 12.3437 42.8407 11.841C42.8407 11.3383 42.9317 10.8833 43.1137 10.476C43.2957 10.0687 43.5427 9.722 43.8547 9.436C44.1753 9.14133 44.548 8.916 44.9727 8.76C45.406 8.604 45.8653 8.526 46.3507 8.526C46.7233 8.526 47.1133 8.591 47.5207 8.721C47.9367 8.84233 48.2963 9.059 48.5997 9.371L47.3127 10.723ZM55.2872 13.908C54.9752 14.3067 54.5808 14.6143 54.1042 14.831C53.6275 15.0477 53.1335 15.156 52.6222 15.156C52.1368 15.156 51.6775 15.078 51.2442 14.922C50.8195 14.766 50.4468 14.545 50.1262 14.259C49.8142 13.9643 49.5672 13.6133 49.3852 13.206C49.2032 12.7987 49.1122 12.3437 49.1122 11.841C49.1122 11.3383 49.2032 10.8833 49.3852 10.476C49.5672 10.0687 49.8142 9.722 50.1262 9.436C50.4468 9.14133 50.8195 8.916 51.2442 8.76C51.6775 8.604 52.1368 8.526 52.6222 8.526C53.0728 8.526 53.4802 8.604 53.8442 8.76C54.2168 8.916 54.5288 9.14133 54.7802 9.436C55.0402 9.722 55.2395 10.0687 55.3782 10.476C55.5168 10.8833 55.5862 11.3383 55.5862 11.841V12.452H51.0622C51.1402 12.8247 51.3092 13.1237 51.5692 13.349C51.8292 13.5657 52.1498 13.674 52.5312 13.674C52.8518 13.674 53.1205 13.6047 53.3372 13.466C53.5625 13.3187 53.7575 13.1323 53.9222 12.907L55.2872 13.908ZM53.6362 11.126C53.6448 10.7967 53.5365 10.515 53.3112 10.281C53.0858 10.047 52.7955 9.93 52.4402 9.93C52.2235 9.93 52.0328 9.96467 51.8682 10.034C51.7035 10.1033 51.5605 10.1943 51.4392 10.307C51.3265 10.411 51.2355 10.5367 51.1662 10.684C51.1055 10.8227 51.0708 10.97 51.0622 11.126H53.6362ZM56.798 5.172H58.748V15H56.798V5.172Z" fill="white"/>
</svg>
