<svg width="40" height="40" viewBox="0 0 40 40" fill="none" xmlns="http://www.w3.org/2000/svg">
<path d="M36.8056 33.1249C37.6188 32.3299 38.125 31.2237 38.125 29.9999C38.125 27.8718 36.5969 26.0956 34.5806 25.7062C34.775 24.9249 35 23.5324 35 21.2499C35 18.6412 33.0919 16.4949 32.1513 15.5937C32.3669 15.2199 32.5 14.7924 32.5 14.3312C32.5 13.8274 32.3525 13.3399 32.0725 12.9199C31.5844 12.1887 30.83 11.7218 30 11.5806V10.1518C30 9.48431 29.74 8.85681 29.2675 8.38369L28.0956 7.21181C27.9562 6.31556 27.1856 5.62494 26.25 5.62494C25.2162 5.62494 24.375 6.46619 24.375 7.49994C24.375 8.53369 25.2162 9.37494 26.25 9.37494C26.8606 9.37494 27.3981 9.07744 27.7406 8.62431L28.3838 9.26744C28.62 9.50431 28.75 9.81806 28.75 10.1518V11.6131L27.3775 11.8874V11.8881C27.34 11.8849 27.3037 11.8749 27.2663 11.8749H23.1038C22.7606 11.8749 22.4819 11.5943 22.4819 11.2499V10.1681C22.4819 9.31181 22.1456 8.53744 21.6088 7.95119C22.8481 7.53619 23.75 6.37744 23.75 4.99994V4.37494H25V3.12494H23.6675C23.3662 1.80431 22.2712 0.767438 20.9294 0.639313C20.055 0.556813 19.1725 0.846188 18.5225 1.43681C17.8725 2.02744 17.5 2.87119 17.5 3.74994V4.99994C17.5 5.77056 17.7913 6.46806 18.2556 7.01369C17.3662 7.28119 16.6106 7.91931 16.2106 8.78806L13.4181 14.8524C13.2262 15.2687 13.125 15.7299 13.125 16.1874C13.125 16.9174 13.3762 17.5887 13.7944 18.1249H13.0094C13.08 17.9287 13.125 17.7199 13.125 17.4999V16.1874V9.99994C13.125 8.96619 12.2837 8.12494 11.25 8.12494H3.75C2.71625 8.12494 1.875 8.96619 1.875 9.99994V17.4999C1.875 18.5337 2.71625 19.3749 3.75 19.3749H9.22125C8.93437 19.8218 8.75 20.4243 8.75 21.2499C8.75 22.6906 10.1519 23.6681 11.6362 24.7031C12.1544 25.0643 12.6781 25.4293 13.1531 25.8162C12.7481 25.6924 12.3194 25.6249 11.875 25.6249C9.46313 25.6249 7.5 27.5874 7.5 29.9999C7.5 31.2237 8.00625 32.3299 8.81938 33.1249H0.625V34.3749H16.875V33.1249H14.9306C15.2506 32.8118 15.5231 32.4506 15.7362 32.0518C16.1887 32.2699 16.9375 32.4999 18.125 32.4999C19.185 32.4999 20.5619 32.3912 22.1569 32.2656C24.3075 32.0956 26.9731 31.8862 29.8038 31.8768C30.0269 32.3443 30.3275 32.7668 30.6938 33.1249H25.625V34.3749H39.375V33.1249H36.8056ZM26.25 8.12494C25.905 8.12494 25.625 7.84431 25.625 7.49994C25.625 7.15556 25.905 6.87494 26.25 6.87494C26.595 6.87494 26.875 7.15556 26.875 7.49994C26.875 7.84431 26.595 8.12494 26.25 8.12494ZM20.0075 28.1249C19.7188 28.1174 19.375 28.0031 19.375 27.4999C19.375 26.3381 20.0312 25.2774 20.6656 24.2518C21.0144 23.6887 21.3481 23.1424 21.5775 22.5868C21.7531 22.9531 21.855 23.3424 21.855 23.7568L21.8838 26.2499H21.875V27.4999C21.875 27.7199 21.92 27.9287 21.99 28.1249H20.0075ZM10.2213 21.8749C10.0825 21.6656 10 21.4574 10 21.2499C10 19.5093 11.0188 19.3749 12.4581 19.3749H16.2388C17.8838 19.7199 19.5338 20.4024 20.6162 21.3606C20.6044 21.5268 20.5681 21.6981 20.51 21.8749H10.2213ZM14.4569 15.6631L20.0912 17.0362C22.6138 17.6556 24.375 19.8768 24.375 22.4374V25.6249H23.1262L23.105 23.7499C23.105 20.6356 19.4981 18.6399 15.9237 18.0431C15.0263 17.8937 14.375 17.1131 14.375 16.1874C14.375 16.0106 14.4088 15.8349 14.4569 15.6631ZM23.125 27.4999V26.8749H24.375C24.8762 26.8749 25.3844 27.1649 25.5844 27.5656C25.6112 27.6193 25.625 27.6793 25.625 27.7387C25.625 27.9518 25.4531 28.1249 25.2413 28.1249H23.75C23.405 28.1249 23.125 27.8443 23.125 27.4999ZM26.7025 27.0074C26.4762 26.5531 26.0888 26.1849 25.625 25.9418V22.4374C25.625 19.6287 23.8975 17.1593 21.3244 16.1281L21.5331 15.5012C21.8431 15.5824 22.1612 15.6249 22.48 15.6249H25.3913C25.5069 15.6249 25.6212 15.6174 25.735 15.6081C25.9894 16.3424 26.68 16.8749 27.5 16.8749L26.6906 17.9537C26.4069 18.3331 26.25 18.8031 26.25 19.2768C26.25 19.8662 26.4875 20.4274 26.9181 20.8581C27.3687 21.3081 28.125 22.2824 28.125 23.7499C28.125 25.5499 27.4187 27.3831 27.0981 28.1249H26.8244C26.8544 28.0006 26.875 27.8724 26.875 27.7387C26.875 27.4862 26.815 27.2331 26.7025 27.0074ZM27.8012 19.9731C27.6075 19.7787 27.5 19.5318 27.5 19.2768C27.5 19.0718 27.5675 18.8681 27.6912 18.7037L29.0625 16.8749H29.1481C29.6462 17.3131 31.25 18.9049 31.25 21.2499C31.25 23.8937 30.93 25.9118 30.755 26.8199C30.3619 27.1906 30.0388 27.6324 29.8031 28.1249H28.4506C28.8394 27.1324 29.375 25.4568 29.375 23.7499C29.375 21.8318 28.3894 20.5606 27.8012 19.9731ZM30.6881 29.3749C30.7694 28.9768 30.9281 28.6068 31.1456 28.2793L32.0631 29.1968C32.0356 29.2549 32.0119 29.3143 31.9906 29.3749H30.6881ZM33.75 30.6249C33.405 30.6249 33.125 30.3443 33.125 29.9999C33.125 29.6556 33.405 29.3749 33.75 29.3749C34.095 29.3749 34.375 29.6556 34.375 29.9999C34.375 30.3443 34.095 30.6249 33.75 30.6249ZM34.375 31.7599C34.4362 31.7381 34.4956 31.7149 34.5531 31.6874L35.4706 32.6049C35.1431 32.8224 34.7731 32.9812 34.375 33.0624V31.7599ZM36.3544 31.7206L35.4369 30.8031C35.4644 30.7449 35.4881 30.6856 35.5094 30.6249H36.8112C36.7306 31.0231 36.5719 31.3931 36.3544 31.7206ZM35.51 29.3749C35.4881 29.3137 35.465 29.2543 35.4375 29.1968L36.355 28.2793C36.5725 28.6068 36.7313 28.9768 36.8125 29.3749H35.51ZM34.5531 28.3131C34.495 28.2856 34.4356 28.2618 34.375 28.2406V26.9387C34.7731 27.0199 35.1431 27.1787 35.4706 27.3962L34.5531 28.3131ZM33.125 28.2399C33.0638 28.2618 33.0044 28.2849 32.9469 28.3124L32.0294 27.3949C32.3569 27.1774 32.7269 27.0187 33.125 26.9374V28.2399ZM31.99 30.6249C32.0119 30.6862 32.035 30.7456 32.0625 30.8031L31.145 31.7206C30.9275 31.3931 30.7687 31.0231 30.6875 30.6249H31.99ZM32.9469 31.6868C33.005 31.7143 33.0644 31.7374 33.125 31.7593V33.0612C32.7269 32.9799 32.3569 32.8212 32.0294 32.6037L32.9469 31.6868ZM33.75 21.2499C33.75 23.7549 33.4631 25.0906 33.3 25.6481C32.9062 25.6887 32.53 25.7856 32.1737 25.9237C32.3363 24.8043 32.5 23.1974 32.5 21.2499C32.5 19.2006 31.5419 17.6574 30.755 16.7337C30.94 16.6718 31.1156 16.5931 31.2794 16.4931C32.0806 17.2637 33.75 19.1243 33.75 21.2499ZM31.0325 13.6131C31.175 13.8268 31.25 14.0749 31.25 14.3312C31.25 15.0449 30.6694 15.6249 29.9562 15.6249H27.5C27.2719 15.6249 27.08 15.4956 26.9712 15.3124C27.4681 15.1068 27.9244 14.8031 28.3162 14.4106C28.6519 14.0737 28.8069 13.5918 28.7306 13.1218C28.7181 13.0462 28.6912 12.9749 28.6675 12.9031L29.1075 12.8149C29.8544 12.6662 30.61 12.9793 31.0325 13.6131ZM23.1038 13.1249H27.2663C27.3025 13.1249 27.3375 13.1337 27.37 13.1499C27.4631 13.1968 27.4894 13.2787 27.4969 13.3231C27.5044 13.3681 27.5056 13.4537 27.4312 13.5281C26.8862 14.0743 26.1612 14.3749 25.3913 14.3749H22.48C21.4375 14.3749 20.6844 13.8443 20.2931 12.9149L21.7587 12.5487C22.0994 12.9024 22.575 13.1249 23.1038 13.1249ZM19.3638 2.36181C19.7588 2.00244 20.2688 1.83181 20.8106 1.88369C21.5188 1.95181 22.1119 2.45244 22.3662 3.12494H18.8575C18.96 2.83556 19.1325 2.57244 19.3638 2.36181ZM18.75 4.37494H22.5V4.99994C22.5 6.03369 21.6588 6.87494 20.625 6.87494C19.5912 6.87494 18.75 6.03369 18.75 4.99994V4.37494ZM17.3456 9.31119C17.6775 8.59056 18.4031 8.12494 19.195 8.12494C20.3181 8.12494 21.2319 9.04119 21.2319 10.1681V11.2499C21.2319 11.2974 21.2425 11.3418 21.2456 11.3881L20.015 11.6956C20.0031 11.5493 19.9875 11.4062 19.9875 11.2499V10.6249H18.7375V11.2499C18.7375 13.0837 19.4312 14.2993 20.3919 14.9743L20.13 15.7593L14.9569 14.4987L17.3456 9.31119ZM6.875 9.37494H8.125V10.6249H6.875V9.37494ZM3.125 17.4999V9.99994C3.125 9.65556 3.405 9.37494 3.75 9.37494H5.625V11.8749H9.375V9.37494H11.25C11.595 9.37494 11.875 9.65556 11.875 9.99994V17.4999C11.875 17.8443 11.595 18.1249 11.25 18.1249H3.75C3.405 18.1249 3.125 17.8443 3.125 17.4999ZM13.635 29.3749C13.6131 29.3137 13.59 29.2543 13.5625 29.1968L14.48 28.2793C14.6975 28.6068 14.8562 28.9768 14.9375 29.3749H13.635ZM12.5 29.9999C12.5 30.3443 12.22 30.6249 11.875 30.6249C11.53 30.6249 11.25 30.3443 11.25 29.9999C11.25 29.6556 11.53 29.3749 11.875 29.3749C12.22 29.3749 12.5 29.6556 12.5 29.9999ZM12.6781 28.3131C12.62 28.2856 12.5606 28.2618 12.5 28.2406V26.9387C12.8981 27.0199 13.2681 27.1787 13.5956 27.3962L12.6781 28.3131ZM11.25 28.2399C11.1888 28.2618 11.1294 28.2849 11.0719 28.3124L10.1544 27.3949C10.4819 27.1774 10.8519 27.0187 11.25 26.9374V28.2399ZM10.1881 29.1968C10.1606 29.2549 10.1369 29.3143 10.1156 29.3749H8.81375C8.895 28.9768 9.05375 28.6068 9.27125 28.2793L10.1881 29.1968ZM10.115 30.6249C10.1369 30.6862 10.16 30.7456 10.1875 30.8031L9.27 31.7206C9.0525 31.3931 8.89375 31.0231 8.8125 30.6249H10.115ZM11.0719 31.6868C11.13 31.7143 11.1894 31.7374 11.25 31.7593V33.0612C10.8519 32.9799 10.4819 32.8212 10.1544 32.6037L11.0719 31.6868ZM12.5 31.7599C12.5612 31.7381 12.6206 31.7149 12.6781 31.6874L13.5956 32.6049C13.2681 32.8224 12.8981 32.9812 12.5 33.0624V31.7599ZM14.4794 31.7206L13.5619 30.8031C13.5894 30.7449 13.6131 30.6856 13.6344 30.6249H14.9363C14.8556 31.0231 14.6969 31.3931 14.4794 31.7206ZM16.25 30.9149V28.8631C16.25 26.3962 14.0881 24.8887 12.3519 23.6781C12.0844 23.4912 11.8219 23.3074 11.5725 23.1249H19.8894C19.7962 23.2793 19.7006 23.4356 19.6025 23.5937C18.91 24.7137 18.125 25.9824 18.125 27.4999C18.125 28.4037 18.61 28.9237 19.1556 29.1781L18.3288 31.2456C18.2631 31.2462 18.1875 31.2499 18.125 31.2499C17.0981 31.2499 16.5175 31.0456 16.25 30.9149ZM22.0588 31.0187C21.1969 31.0868 20.4081 31.1474 19.6969 31.1906L20.4231 29.3749H29.425C29.3956 29.5799 29.375 29.7874 29.375 29.9999C29.375 30.2143 29.3956 30.4237 29.4256 30.6299C26.69 30.6556 24.1356 30.8549 22.0588 31.0187Z" fill="black"/>
<path d="M23.125 33.125H24.375V34.375H23.125V33.125Z" fill="black"/>
<path d="M0.625 38.125H8.125V39.375H0.625V38.125Z" fill="black"/>
<path d="M11.875 38.125H19.375V39.375H11.875V38.125Z" fill="black"/>
<path d="M9.375 38.125H10.625V39.375H9.375V38.125Z" fill="black"/>
<path d="M20.625 38.125H39.375V39.375H20.625V38.125Z" fill="black"/>
<path d="M18.125 33.125H21.875V34.375H18.125V33.125Z" fill="black"/>
</svg>
